<svg width="90" height="31" viewBox="0 0 90 31" fill="none" xmlns="http://www.w3.org/2000/svg">
<path d="M87.528 13.8847C88.0599 13.8847 88.5919 13.8885 89.1238 13.884C89.7075 13.8794 90.0434 13.5647 89.9947 12.997C89.9385 12.3366 89.8671 11.671 89.7242 11.0242C88.0728 3.5554 80.9248 -1.14015 73.3383 0.248334C65.5246 1.67823 60.4337 9.46174 62.3123 17.1082C64.2183 24.8676 72.2068 29.4465 79.9415 27.2124C80.5722 27.0302 80.8238 27.1288 81.1604 27.7018C81.7076 28.634 82.2486 29.57 82.7973 30.5014C83.0891 30.9976 83.4676 31.1339 83.9775 30.8628C84.8796 30.3839 85.774 29.8877 86.6479 29.3599C87.2931 28.9698 87.3532 28.6265 86.9778 27.9827C85.6669 25.735 84.3544 23.4882 83.042 21.242C82.6887 20.6374 82.222 20.5478 81.6642 20.9785C80.3154 22.0206 78.797 22.6471 77.0978 22.8647C71.0623 23.638 65.8833 18.3137 66.9723 12.384C67.6304 8.80289 69.7757 6.36249 73.2646 5.27445C76.7619 4.18414 79.9012 5.02521 82.5215 7.57102C84.0178 9.02502 84.8461 10.8322 85.0764 12.9013C85.1653 13.698 85.3781 13.884 86.1988 13.8847C86.6419 13.8847 87.0857 13.8847 87.5287 13.8847H87.528ZM14.2839 27.7741C17.5091 27.7478 20.5679 26.6371 23.2163 24.4249C23.8075 23.9309 23.8167 23.5281 23.2627 22.9784C22.6091 22.3308 21.954 21.6848 21.299 21.038C20.6963 20.4439 20.4478 20.4341 19.7768 20.9544C17.6589 22.5966 15.2468 23.2668 12.6121 22.8067C8.97651 22.172 6.46186 20.0802 5.35234 16.5789C4.24131 13.073 5.1046 9.93762 7.7454 7.37148C11.0398 4.16908 16.1906 3.98385 19.8156 6.8459C20.425 7.32706 20.7093 7.31501 21.2526 6.77964C21.9168 6.12531 22.5795 5.46871 23.2437 4.81362C23.8311 4.23308 23.8197 3.83927 23.1798 3.31746C19.6081 0.408717 15.5447 -0.594246 11.0261 0.335679C3.84158 1.81452 -1.05853 8.99414 0.196134 16.1459C1.38088 22.9016 7.15645 27.75 14.2839 27.7741ZM28.8984 13.8825C28.8984 18.1857 28.8984 22.489 28.8984 26.7922C28.8984 27.4948 29.1515 27.7553 29.8491 27.7553C35.2682 27.7568 40.6882 27.7568 46.1073 27.7553C46.7768 27.7553 47.0542 27.4774 47.0565 26.8178C47.0595 25.8646 47.058 24.9105 47.0565 23.9573C47.0565 23.1892 46.7874 22.928 45.9994 22.928C42.1374 22.928 38.2753 22.928 34.4133 22.928C33.9903 22.928 33.7788 22.7226 33.7788 22.312C33.7788 15.274 33.7788 8.23514 33.7788 1.19708C33.7788 0.240804 33.5812 0.0420182 32.6297 0.0420182C31.7558 0.0420182 30.8826 0.0420182 30.0087 0.0420182C29.1241 0.0420182 28.8976 0.26264 28.8976 1.12329C28.8976 5.3761 28.8976 9.62965 28.8976 13.8825H28.8984ZM52.1276 13.896C52.1276 18.1978 52.1268 22.5003 52.1283 26.802C52.1283 27.4993 52.3875 27.7538 53.0897 27.756C54.0768 27.759 55.0647 27.759 56.0519 27.756C56.7511 27.7538 57.0193 27.4895 57.0193 26.8013C57.0201 18.2098 57.0201 9.61836 57.0193 1.02616C57.0193 0.321372 56.7412 0.0442772 56.0322 0.0420182C55.0951 0.0390063 54.1589 0.0412653 53.2219 0.0420182C52.351 0.0420182 52.1283 0.265652 52.1276 1.14061C52.1276 5.39266 52.1276 9.64471 52.1276 13.896Z" fill="white"/>
<path d="M87.5282 13.8856C87.0851 13.8856 86.6413 13.8856 86.1983 13.8856C85.3783 13.8856 85.1648 13.6989 85.0758 12.9022C84.8456 10.833 84.0172 9.02589 82.5209 7.57189C79.9014 5.02608 76.7613 4.18501 73.2641 5.27532C69.7752 6.36337 67.6291 8.80301 66.9717 12.3849C65.8827 18.3153 71.0617 23.6396 77.0972 22.8656C78.7964 22.648 80.3148 22.0207 81.6637 20.9794C82.2215 20.5487 82.6881 20.6375 83.0415 21.2429C84.3547 23.489 85.6671 25.7359 86.9772 27.9836C87.3526 28.6273 87.2934 28.9707 86.6474 29.3607C85.7735 29.8886 84.879 30.3848 83.977 30.8637C83.467 31.1348 83.0886 30.9985 82.7968 30.5023C82.2489 29.5708 81.7078 28.6349 81.1599 27.7027C80.8232 27.1297 80.5709 27.031 79.9409 27.2133C72.2062 29.4466 64.2185 24.8677 62.3118 17.1091C60.4332 9.46261 65.524 1.67911 73.3378 0.249206C80.9243 -1.13853 88.0723 3.55627 89.7237 11.025C89.8665 11.6711 89.938 12.3367 89.9942 12.9978C90.0421 13.5663 89.7062 13.8803 89.1233 13.8848C88.5913 13.8894 88.0594 13.8856 87.5274 13.8856H87.5282Z" fill="white"/>
<path d="M14.2839 27.7743C7.15645 27.7502 1.38088 22.9018 0.196134 16.1461C-1.05853 8.99436 3.84158 1.81475 11.0261 0.335902C15.5447 -0.594023 19.6081 0.40894 23.1798 3.31919C23.8197 3.841 23.8311 4.23481 23.2437 4.81535C22.5802 5.47119 21.9176 6.12704 21.2526 6.78137C20.7093 7.31674 20.425 7.32878 19.8156 6.84763C16.1906 3.98482 11.0398 4.1708 7.7454 7.37321C5.10536 9.93935 4.24207 13.0747 5.35234 16.5806C6.46186 20.0827 8.97575 22.1737 12.6121 22.8085C15.2468 23.2685 17.6589 22.5984 19.7768 20.9561C20.4478 20.4358 20.6963 20.4449 21.299 21.0397C21.954 21.6858 22.6091 22.3326 23.2627 22.9801C23.8174 23.5298 23.8075 23.9326 23.2163 24.4266C20.5679 26.6388 17.5084 27.7495 14.2839 27.7758V27.7743Z" fill="white"/>
<path d="M28.8984 13.8827C28.8984 9.62987 28.8984 5.37631 28.8984 1.12351C28.8984 0.262858 29.1249 0.0422363 30.0095 0.0422363C30.8834 0.0422363 31.7566 0.0422363 32.6305 0.0422363C33.5812 0.0422363 33.7795 0.241022 33.7795 1.1973C33.7795 8.23536 33.7795 15.2742 33.7795 22.3122C33.7795 22.7229 33.9911 22.9282 34.4141 22.9282C38.2761 22.9282 42.1382 22.9282 46.0002 22.9282C46.789 22.9282 47.0565 23.1895 47.0573 23.9575C47.058 24.9108 47.0595 25.8648 47.0573 26.818C47.055 27.4776 46.7776 27.7547 46.1081 27.7555C40.6889 27.757 35.269 27.757 29.8499 27.7555C29.1523 27.7555 28.8992 27.495 28.8992 26.7924C28.8992 22.4892 28.8992 18.1859 28.8992 13.8827H28.8984Z" fill="white"/>
<path d="M52.1286 13.8963C52.1286 9.64421 52.1286 5.39215 52.1286 1.14085C52.1286 0.26665 52.3513 0.0430167 53.2229 0.0422637C54.1599 0.0422637 55.0962 0.0400048 56.0332 0.0422637C56.7422 0.0445227 57.0204 0.321618 57.0204 1.0264C57.0204 9.61785 57.0211 18.2093 57.0204 26.8015C57.0204 27.4897 56.7521 27.754 56.053 27.7563C55.0658 27.7593 54.0779 27.7593 53.0907 27.7563C52.3885 27.754 52.1301 27.4995 52.1294 26.8023C52.1278 22.5005 52.1286 18.198 52.1286 13.8963Z" fill="white"/>
</svg>
